<svg width="66" height="32" viewBox="0 0 66 32" fill="none" xmlns="http://www.w3.org/2000/svg">
<g clip-path="url(#clip0_67_625)">
<path d="M0.852361 16.2328L3.98002 15.8187C4.83731 15.7334 5.53841 16.0785 6.06953 16.8728C6.60988 17.681 6.88783 18.7561 6.88953 20.0934C6.89123 21.4307 6.66207 22.4784 6.20668 23.2365C5.76049 23.9805 5.01415 24.3134 3.99533 24.2399L2.84742 24.1572L2.85159 27.4397C2.85175 27.5659 2.82315 27.6182 2.77716 27.7024C2.73117 27.7867 2.67433 27.7954 2.60978 27.7861L0.878876 27.6058C0.823549 27.5966 0.772777 27.5452 0.731172 27.4517C0.689567 27.3583 0.670991 27.2507 0.670843 27.1338L0.657451 16.5897C0.657297 16.4681 0.643584 16.4519 0.684952 16.3583C0.726326 16.2694 0.797052 16.2375 0.852361 16.2328ZM2.84562 19.1119L2.84801 20.9916L3.94973 20.9996C4.08802 20.9994 4.19855 20.9198 4.28592 20.756C4.3733 20.5922 4.41449 20.3631 4.41412 20.0685C4.41374 19.7739 4.37195 19.5355 4.28874 19.3486C4.20553 19.1616 4.09018 19.0729 3.94729 19.0778L2.84562 19.1119Z" fill="white"/>
<path d="M10.8019 24.8962L15.9542 25.1238C16.0586 25.1295 16.1508 25.1918 16.2307 25.3108C16.3107 25.4298 16.3534 25.5688 16.3591 25.7326L16.4666 28.8107C16.4722 28.9697 16.4391 29.1067 16.367 29.2122C16.295 29.3225 16.2066 29.3677 16.102 29.3573L8.29353 28.4872C8.21277 28.4806 8.14441 28.4221 8.08371 28.3119C8.02318 28.2062 7.99038 28.0809 7.98565 27.9453L7.55896 15.7264C7.55406 15.5861 7.5782 15.4635 7.63121 15.3539C7.68423 15.2443 7.74851 15.1859 7.82861 15.1737L15.43 14.1823C15.5338 14.1693 15.6207 14.2178 15.7002 14.3228C15.7796 14.4277 15.8222 14.562 15.8278 14.7211L15.9351 17.7945C15.9407 17.9536 15.9077 18.0952 15.8361 18.2148C15.7645 18.3344 15.6767 18.3984 15.5775 18.4065L10.5863 18.7213L10.63 19.975L14.8682 19.7989C14.9676 19.7954 15.0547 19.8486 15.1343 19.9582C15.2094 20.0727 15.252 20.207 15.2573 20.3614L15.355 23.1588C15.3606 23.3179 15.3273 23.4502 15.2603 23.5649C15.1932 23.6797 15.1051 23.7343 15.0056 23.7331L10.7579 23.6378L10.8017 24.8915L10.8019 24.8962Z" fill="white"/>
<path d="M31.3538 25.1522C31.4939 29.1629 29.6192 30.9373 26.0168 30.5123L19.231 29.7088C19.1216 29.6938 19.0239 29.6219 18.9423 29.493C18.8607 29.364 18.8146 29.215 18.8087 29.0457L18.2955 14.3473C18.2897 14.1828 18.3252 14.0309 18.3978 13.9013C18.4704 13.7716 18.563 13.6978 18.6713 13.6799L25.2166 12.7922C26.9636 12.557 28.3202 12.8298 29.2507 13.6305C30.2001 14.4542 30.7148 15.8156 30.7808 17.7058L30.7836 17.7857C30.814 18.6556 30.6589 19.4095 30.3179 20.0334C29.9812 20.6525 29.6321 21.046 29.2614 21.2096C29.7947 21.4169 30.2691 21.8852 30.6801 22.6147C31.096 23.3534 31.3252 24.2022 31.3582 25.1473L31.3538 25.1522ZM25.3545 19.0769C25.4728 18.8279 25.5265 18.5483 25.516 18.2474C25.5055 17.9465 25.4329 17.6854 25.2985 17.4735C25.1641 17.2616 24.9794 17.1692 24.7442 17.1869L22.4505 17.3517L22.5275 19.5569L24.8238 19.4673C25.0594 19.4591 25.2409 19.3304 25.3546 19.0816L25.3545 19.0769ZM22.6687 23.6006L22.7516 25.9751L25.2511 26.1185C25.5237 26.1325 25.7283 26.0171 25.8601 25.763C25.9918 25.5089 26.0497 25.2197 26.0384 24.8952L26.0376 24.8717C26.0264 24.552 25.9394 24.2679 25.7814 24.0286C25.6233 23.7893 25.4149 23.6648 25.1653 23.6594L22.6689 23.6053L22.6687 23.6006Z" fill="white"/>
<path d="M54.6729 14.6458L57.0162 14.9712C57.1836 15.0224 57.2254 15.1898 57.2254 15.1898C57.2862 15.3039 57.3042 15.3842 57.3091 15.5246L57.7389 28.1031C57.7436 28.2386 57.7195 28.3606 57.6661 28.4593C57.6128 28.5629 57.5436 28.6138 57.4631 28.6166L55.1332 28.8729C55.0433 28.876 54.9473 28.8516 54.8821 28.7473C54.8122 28.6432 54.8033 28.5997 54.7984 28.4593L54.62 23.9778L52.0908 23.8529L52.2439 28.4593C52.2492 28.6093 52.2459 28.7055 52.2439 28.8729C52.2421 29.0305 52.0895 29.2043 51.9949 29.2076L48.9821 29.5424C48.8732 29.5462 48.8572 29.5672 48.7728 29.4587C48.6885 29.3502 48.6534 29.2563 48.6473 29.0821L48.1208 14.2101C48.1153 14.0504 48.1518 14.0341 48.2289 13.9345C48.3059 13.8349 48.4121 13.7985 48.5218 13.8189L51.4509 14.2101C51.5511 14.2308 51.5847 14.2296 51.6601 14.3529C51.7355 14.4762 51.7804 14.5795 51.7856 14.7295L51.9268 19.1544L54.4629 19.4777L54.3381 15.2316C54.3331 15.0865 54.3635 14.9073 54.4218 14.8132C54.4803 14.724 54.5869 14.6246 54.6729 14.6458Z" fill="white"/>
<path d="M65.4645 27.6858L59.0216 28.371C58.9458 28.3723 58.8661 28.3828 58.8123 28.2873C58.7538 28.1919 58.731 28.1293 58.7287 27.9944L58.5194 15.6399C58.5171 15.505 58.506 15.4033 58.5613 15.3156C58.6166 15.2327 58.6944 15.214 58.7705 15.2319L60.398 15.46C60.4693 15.478 60.5318 15.5348 60.5857 15.6399C60.6397 15.745 60.6653 15.8602 60.6676 15.9903L60.8074 23.9981L61.4805 24.0394L61.3648 15.9903C61.3626 15.865 61.3978 15.812 61.4485 15.734C61.4944 15.6513 61.5494 15.6266 61.6159 15.6399L62.9131 15.8279C62.9796 15.8411 63.0313 15.8899 63.0804 15.9903C63.1295 16.0906 63.1202 16.1994 63.1223 16.3199L63.2483 24.1387L63.8645 24.1761L63.75 16.4454C63.7478 16.3249 63.7505 16.2629 63.7918 16.1851C63.8331 16.1072 63.9392 16.0011 64.001 16.0145L65.3819 16.1851C65.3819 16.1851 65.4633 16.269 65.5074 16.355C65.5516 16.4458 65.5471 16.391 65.5493 16.5163L65.67 27.2533C65.6721 27.3689 65.6549 27.4705 65.6137 27.5531C65.5726 27.6406 65.526 27.68 65.4645 27.681L65.4645 27.6858Z" fill="white"/>
</g>
<path d="M38.0163 30.7968L34.1248 31.2571C33.9827 31.2572 33.3297 31.2571 33.3716 30.5457C33.3716 30.5457 33.4272 30.1273 33.4552 29.9599C33.4972 29.7088 33.512 29.5708 33.5243 29.5173L37.2761 13.0771C37.3803 12.5336 37.6853 12.3156 38.1816 12.4188L43.4105 13.0771C43.8304 13.1637 43.9989 13.2723 44.1218 13.808L48.3782 29.3156C48.3892 29.3586 48.3638 29.4264 48.3481 29.4577C48.3062 29.5414 48.3109 29.5367 48.2644 29.5832C48.2226 29.6251 48.1498 29.7055 48.0552 29.7088L44.9887 30.0558C44.6197 30.0687 44.35 29.8082 44.1798 29.2742L43.6815 27.6189L39.0578 27.6068L38.6132 29.3915C38.4536 29.9755 38.461 30.7812 38.0163 30.7968ZM42.5983 22.9181L41.1 17.7208L39.906 22.7325L42.6031 22.9179L42.5983 22.9181Z" fill="white"/>
<path d="M0.648438 10.2937V14.8966L33.2033 9.54049V5.23053V0L0.648438 10.2937Z" fill="white"/>
<path d="M65.502 10.2937V14.8966L33.1982 9.54049V5.23053V0L65.502 10.2937Z" fill="white"/>
<defs>
<clipPath id="clip0_67_625">
<rect width="65.4157" height="17.8831" fill="white" transform="translate(0 13.6265) rotate(-2)"/>
</clipPath>
</defs>
</svg>
